<svg width="400" height="300" xmlns="http://www.w3.org/2000/svg">
  <defs>
    <linearGradient id="bg" x1="0%" y1="0%" x2="100%" y2="100%">
      <stop offset="0%" style="stop-color:#f5f7fa;stop-opacity:1" />
      <stop offset="100%" style="stop-color:#c3cfe2;stop-opacity:1" />
    </linearGradient>
  </defs>
  <rect width="400" height="300" fill="url(#bg)" stroke="#ddd" stroke-width="2"/>
  <text x="200" y="30" text-anchor="middle" font-family="Arial" font-size="18" font-weight="bold" fill="#333">About Template</text>
  <!-- Hero Section -->
  <rect x="20" y="50" width="360" height="90" fill="#4f46e5" rx="8"/>
  <text x="200" y="75" text-anchor="middle" font-family="Arial" font-size="14" font-weight="bold" fill="white">About Us Hero</text>
  <text x="200" y="95" text-anchor="middle" font-family="Arial" font-size="10" fill="white" opacity="0.9">Learn more about our organization</text>
  <rect x="170" y="105" width="60" height="20" fill="white" rx="4"/>
  <text x="200" y="118" text-anchor="middle" font-family="Arial" font-size="9" fill="#4f46e5">Learn More</text>
  <!-- Tabs Section -->
  <rect x="20" y="160" width="360" height="100" fill="white" stroke="#e5e7eb" rx="4"/>
  <rect x="30" y="170" width="40" height="20" fill="#4f46e5" rx="3"/>
  <text x="50" y="183" text-anchor="middle" font-family="Arial" font-size="8" fill="white">Tab 1</text>
  <rect x="80" y="170" width="40" height="20" fill="#f3f4f6" rx="3"/>
  <text x="100" y="183" text-anchor="middle" font-family="Arial" font-size="8" fill="#666">Tab 2</text>
  <rect x="130" y="170" width="40" height="20" fill="#f3f4f6" rx="3"/>
  <text x="150" y="183" text-anchor="middle" font-family="Arial" font-size="8" fill="#666">Tab 3</text>
  <rect x="180" y="170" width="40" height="20" fill="#f3f4f6" rx="3"/>
  <text x="200" y="183" text-anchor="middle" font-family="Arial" font-size="8" fill="#666">Tab 4</text>
  <text x="200" y="210" text-anchor="middle" font-family="Arial" font-size="8" fill="#666">Tab content area with 8 tabs total</text>
</svg>